<?xml version="1.0" encoding="iso-8859-1"?>
<!-- Generator: Adobe Illustrator 19.0.0, SVG Export Plug-In . SVG Version: 6.00 Build 0)  -->
<svg fill="#fff" version="1.1" xmlns="http://www.w3.org/2000/svg" xmlns:xlink="http://www.w3.org/1999/xlink" x="0px" y="0px"
	 viewBox="0 0 512 512" style="enable-background:new 0 0 512 512;" xml:space="preserve">
<g> 
    <path d="M374.511-6.31c-38.902 0-133.448 49.748-212.85 156.523-74.263 99.869-110.365 172.016-110.365 220.564 0 38.226 26.398 56.469 40.576 66.265l3.499 2.441c15.669 11.203 40.034 14.827 49.372 14.827 16.377 0 23.283-9.588 27.464-17.943 3.548-7.064 32.97-70.247 35.952-78.102 4.574-12.078 3.066-29.68-11.079-39.801l-2.482-1.733c-7.023-4.865-20.084-13.911-21.891-24.907-0.883-5.347 0.908-10.937 5.473-17.093 22.774-30.688 95.488-120.794 108.599-133.031 10.271-9.596 23.283-10.962 32.146-3.49 9.171 7.731 13.245 12.295 13.286 12.345l0.941 0.908c0.775 0.65 7.939 6.331 19.651 6.331 8.446 0 17.043-2.916 25.531-8.655 22.050-14.894 71.797-48.173 71.797-48.173l0.808-0.608c6.364-5.456 15.561-21.166 4.84-41.617-11.112-21.226-45.607-65.051-81.268-65.051zM144.743 437.25c-8.080 0-27.939-3.415-39.46-11.645l-3.707-2.591c-13.228-9.147-33.22-22.958-33.22-52.238 0-44.749 35.003-113.564 106.999-210.385 78.628-105.75 168.509-149.642 199.156-149.642 26.064 0 55.945 36.411 66.157 55.904 6.273 11.97 1.141 18.717-0.633 20.542-5.756 3.856-50.621 33.87-71.247 47.806-5.623 3.806-11.005 5.73-15.985 5.73-4.523 0-7.497-1.607-8.505-2.241-1.666-1.783-6.247-6.473-14.378-13.328-15.218-12.811-38.368-11.271-54.786 4.065-14.77 13.786-89.365 106.658-110.649 135.339-7.364 9.921-10.262 20.026-8.614 30.030 2.991 18.135 19.918 29.855 29.014 36.153l2.266 1.591c8.122 5.806 6.406 16.319 5.057 19.876-2.516 6.623-31.563 69.156-35.244 76.503-3.016 6.016-5.382 8.531-12.221 8.531z"  stroke="white" stroke-width="20"/>
</g>
</svg>