<?xml version="1.0" encoding="iso-8859-1"?>
<!-- Generator: Adobe Illustrator 19.0.0, SVG Export Plug-In . SVG Version: 6.00 Build 0)  -->
<svg fill="#fff" version="1.1" xmlns="http://www.w3.org/2000/svg" xmlns:xlink="http://www.w3.org/1999/xlink" x="0px" y="0px"
	 viewBox="0 0 512 512" style="enable-background:new 0 0 512 512;" xml:space="preserve">
<g> 
    <path d="M256 437.25c-117.77 0-213.25-95.471-213.25-213.25s95.48-213.25 213.25-213.25c117.771 0 213.25 95.471 213.25 213.25s-95.479 213.25-213.25 213.25zM256 27.81c-108.183 0-196.19 88.015-196.19 196.19 0 108.174 88.007 196.19 196.19 196.19s196.19-88.016 196.19-196.19c0-108.175-88.007-196.19-196.19-196.19zM362.675 300.137l-136.938-132.79-47.973 47.964c-4.999 4.999-13.095 4.999-18.093 0-4.999-4.998-4.999-13.094 0-18.093l56.877-56.877c2.499-2.499 5.773-3.749 9.047-3.749 3.207 0 6.422 1.199 8.904 3.607l145.985 141.561c5.073 4.923 5.198 13.019 0.283 18.093-4.938 5.082-13.027 5.198-18.092 0.284z" stroke="white" stroke-width="20"/>
</g>
</svg>