<?xml version="1.0" encoding="iso-8859-1"?>
<!-- Generator: Adobe Illustrator 19.0.0, SVG Export Plug-In . SVG Version: 6.00 Build 0)  -->
<svg fill="#fff" version="1.1" xmlns="http://www.w3.org/2000/svg" xmlns:xlink="http://www.w3.org/1999/xlink" x="0px" y="0px"
	 viewBox="0 0 512 512" style="enable-background:new 0 0 512 512;" xml:space="preserve">
<g> 
    <path d="M457.463 43.639l-116.205 116.217c23.358 28.089 37.419 64.167 37.419 103.543 0 89.515-72.554 162.070-162.070 162.070-89.498 0-162.070-72.555-162.070-162.070 0-89.498 72.572-162.070 162.070-162.070 39.385 0 75.454 14.061 103.543 37.419l116.205-116.217 21.108 21.108zM71.597 263.399c0 79.96 65.041 145.010 145.010 145.010 79.953 0 145.010-65.050 145.010-145.010s-65.057-145.010-145.010-145.010c-79.969 0-145.010 65.050-145.010 145.010z" stroke="#fff" stroke-width="20"/>
</g>
</svg>