<?xml version="1.0" encoding="iso-8859-1"?>
<!-- Generator: Adobe Illustrator 19.0.0, SVG Export Plug-In . SVG Version: 6.00 Build 0)  -->
<svg fill="#fff" version="1.1" xmlns="http://www.w3.org/2000/svg" xmlns:xlink="http://www.w3.org/1999/xlink" x="0px" y="0px"
	 viewBox="0 0 512 512" style="enable-background:new 0 0 512 512;" xml:space="preserve">
<g> 
    <path d="M-0.329 282.944v-119.42h51.18v-102.36h17.060v102.36h131.232l124.601-100.827v324.139l-125.392-103.892h-198.681zM16.731 180.584v85.3h68.24v-85.3h-68.24zM209.239 269.807l97.445 80.743v-252.102l-101.502 82.134h-103.151v85.3h102.469l4.739 3.925zM441.815 371.317l-12.27-12.278c39.926-31.255 65.724-79.752 65.724-134.272 0-55.97-27.214-105.583-68.981-136.705l12.345-12.345c44.783 34.295 73.697 88.29 73.697 149.050-0.001 59.301-27.549 112.155-70.515 146.55zM386.986 316.48l-12.404-12.403c26.332-16.635 43.917-45.924 43.917-79.31 0-34.861-19.151-65.283-47.457-81.46l12.428-12.429c31.255 19.61 52.088 54.271 52.088 93.889 0.001 38.143-19.258 71.763-48.572 91.713z" stroke="white" stroke-width="20"/>
</g>
</svg>